<svg xmlns="http://www.w3.org/2000/svg" viewBox="-8486 -547 1929 448.154"><defs><style>.a{fill:#2e50a2;}.b,.c,.e{fill:#ccc;}.b,.c,.g{stroke:#797d7f;stroke-width:3px;}.b,.g,.i,.j{stroke-miterlimit:10;}.d{fill:#222;}.f,.j{fill:#797d7f;}.g,.i,.l{fill:none;}.h{fill:#fff;}.i{stroke:#fff;}.j{stroke:#2e50a2;}.k{fill:#203d82;}.l{stroke:#222;}</style></defs><g transform="translate(-8461.7 -1824.379)"><path class="a" d="M-795.3,4877.1c21.183-7.932,128.665-19.831,575.476-17.9,264.328,1.143,531.182,29.529,757.75,63.545C885.87,4974.985,1132.9,5039.1,1132.9,5039.1v149.1l-1927.694,3S-795.3,4882.9-795.3,4877.1Z" transform="translate(771 -3466)"/><g transform="translate(636.343 1365.865)"><line class="b" x1="5.875" y1="5.487" transform="translate(0 76.635)"/><path class="c" d="M0,3.913,4.32-.875" transform="translate(123.63 78.209)"/><path class="d" d="M513.587,184.662H460.8L485.818,109.8" transform="translate(-420.738 -100.54)"/><path class="e" d="M494.194,102.7,432.5,186.822h61.183l.511-71.21,22.791,71.21h39.034Z" transform="translate(-429.507 -102.7)"/><path class="a" d="M479.022,110.865s42.391,59.974,42.784,61.8l-20.215,9.289Z" transform="translate(-414.243 -97.831)"/></g><g transform="translate(876.839 1361.193)"><path class="f" d="M605.1,147.665H732.7l-10.129-31.378L694.436,104.8H654.762L617.2,112.785l-3.658,4.343Z" transform="translate(-602.079 -102.068)"/><ellipse class="f" cx="12.38" cy="12.327" rx="12.38" ry="12.327" transform="translate(36.785 78.796)"/><line class="g" x1="5.754" y2="17.143" transform="translate(5.834 86.307)"/><ellipse class="h" cx="8.16" cy="8.125" rx="8.16" ry="8.125" transform="translate(41.006 82.998)"/><path class="e" d="M605.1,135.4v42.725H727.778L732.7,135.4Z" transform="translate(-602.079 -89.803)"/><rect class="h" width="30.529" height="69.551" transform="translate(64.501 13.587)"/><path class="h" d="M0,0H3.8V8.965H0Z" transform="translate(0 61.986)"/><path class="d" d="M650.617,138.214H618.4l6.894-24.514h25.324Z" transform="translate(-596.668 -98.501)"/><path class="e" d="M0,0,20.958.018l0,4.624L0,4.624Z" transform="translate(21.876 4.373) rotate(-12.093)"/><rect class="h" width="46.708" height="2.942" transform="translate(110.083 88.321)"/><path class="h" d="M703.98,167.9v12.327H699.9V167.9" transform="translate(-563.509 -76.777)"/><rect class="d" width="21.244" height="21.152" transform="translate(69.003 17.58)"/><rect class="e" width="5.768" height="10.646" transform="translate(69.003 50.499)"/></g><g transform="translate(543.171 1502.972)"><path class="h" d="M369.276,169.6l-15.067,49.772H349.6L364.49,169.6Z" transform="translate(-343.928 -166.6)"/><path class="h" d="M395.9,169.6l14.89,49.772h4.786L400.509,169.6Z" transform="translate(-308.157 -166.6)"/><rect class="e" width="114.576" height="7.06" transform="translate(0 26.591)"/><path class="e" d="M0,0H79.592V5.824H0Z" transform="translate(16.893)"/></g><g transform="translate(248.826 1309.584)"><line class="i" y1="7.986" x2="7.273" transform="translate(73.858 229.715)"/><line class="i" x2="1.711" y2="16.257" transform="translate(72.146 221.301)"/><path class="i" d="M45.1,161.8c.143.143,10.41,7.7,10.41,7.7" transform="translate(18.918 68.343)"/></g><g transform="translate(429.428 1197.472)"><line class="i" y1="7.986" x2="7.273" transform="translate(73.858 229.715)"/><line class="i" x2="1.711" y2="16.257" transform="translate(72.146 221.301)"/><path class="i" d="M45.1,161.8c.143.143,10.41,7.7,10.41,7.7" transform="translate(18.918 68.343)"/></g><g transform="translate(367.312 1270.259)"><line class="i" y1="7.986" x2="7.273" transform="translate(73.858 229.715)"/><line class="i" x2="1.711" y2="16.257" transform="translate(72.146 221.301)"/><path class="i" d="M45.1,161.8c.143.143,10.41,7.7,10.41,7.7" transform="translate(18.918 68.343)"/></g><g transform="translate(405.889 1330.619)"><line class="i" y1="7.986" x2="7.273" transform="translate(73.858 229.715)"/><line class="i" x2="1.711" y2="16.257" transform="translate(72.146 221.301)"/><path class="i" d="M45.1,161.8c.143.143,10.41,7.7,10.41,7.7" transform="translate(18.918 68.343)"/></g><g transform="translate(359.046 1401.039)"><line class="i" y1="7.986" x2="7.273" transform="translate(73.858 229.715)"/><line class="i" x2="1.711" y2="16.257" transform="translate(72.146 221.301)"/><path class="i" d="M45.1,161.8c.143.143,10.41,7.7,10.41,7.7" transform="translate(18.918 68.343)"/></g><g transform="translate(535.398 1378.176)"><line class="i" y1="7.986" x2="7.273" transform="translate(73.858 229.715)"/><line class="i" x2="1.711" y2="16.257" transform="translate(72.146 221.301)"/><path class="i" d="M45.1,161.8c.143.143,10.41,7.7,10.41,7.7" transform="translate(18.918 68.343)"/></g><g transform="translate(635.514 1362.628)"><line class="i" y1="7.986" x2="7.273" transform="translate(73.858 229.715)"/><line class="i" x2="1.711" y2="16.257" transform="translate(72.146 221.301)"/><path class="i" d="M45.1,161.8c.143.143,10.41,7.7,10.41,7.7" transform="translate(18.918 68.343)"/></g><g transform="translate(1466.32 1293.268)"><line class="i" y1="7.986" x2="7.273" transform="translate(73.858 229.715)"/><line class="i" x2="1.711" y2="16.257" transform="translate(72.146 221.301)"/><path class="i" d="M45.1,161.8c.143.143,10.41,7.7,10.41,7.7" transform="translate(18.918 68.343)"/></g><g transform="translate(501.413 1230.933)"><line class="i" y1="7.986" x2="7.273" transform="translate(73.858 229.715)"/><line class="i" x2="1.711" y2="16.257" transform="translate(72.146 221.301)"/><path class="i" d="M45.1,161.8c.143.143,10.41,7.7,10.41,7.7" transform="translate(18.918 68.343)"/></g><g transform="translate(732.875 1254.712)"><line class="i" y1="7.986" x2="7.273" transform="translate(73.858 229.715)"/><line class="i" x2="1.711" y2="16.257" transform="translate(72.146 221.301)"/><path class="i" d="M45.1,161.8c.143.143,10.41,7.7,10.41,7.7" transform="translate(18.918 68.343)"/></g><g transform="translate(929.947 1287.268)"><line class="i" y1="7.986" x2="7.273" transform="translate(73.858 229.715)"/><line class="i" x2="1.711" y2="16.257" transform="translate(72.146 221.301)"/><path class="i" d="M45.1,161.8c.143.143,10.41,7.7,10.41,7.7" transform="translate(18.918 68.343)"/></g><g transform="translate(1343.094 1321.952)"><line class="i" y1="7.986" x2="7.273" transform="translate(73.858 229.715)"/><line class="i" x2="1.711" y2="16.257" transform="translate(72.146 221.301)"/><path class="i" d="M45.1,161.8c.143.143,10.41,7.7,10.41,7.7" transform="translate(18.918 68.343)"/></g><g transform="translate(853.199 1370.859)"><line class="i" y1="7.986" x2="7.273" transform="translate(73.858 229.715)"/><line class="i" x2="1.711" y2="16.257" transform="translate(72.146 221.301)"/><path class="i" d="M45.1,161.8c.143.143,10.41,7.7,10.41,7.7" transform="translate(18.918 68.343)"/></g><g transform="translate(1164.162 1296.943)"><line class="i" y1="7.986" x2="7.273" transform="translate(73.858 229.715)"/><line class="i" x2="1.711" y2="16.257" transform="translate(72.146 221.301)"/><path class="i" d="M45.1,161.8c.143.143,10.41,7.7,10.41,7.7" transform="translate(18.918 68.343)"/></g><g transform="translate(-488.48 157)"><path class="f" d="M200.1,131.5v21.819h15.687V131.5" transform="translate(656.16 1188.033)"/><path class="e" d="M190.341,95.6h6.417l-16.97,43.638h8.271L172.8,178.454h93.836l-15.259-39.217h8.271L242.678,95.6h4.706L218.577,21.3Z" transform="translate(644.528 1141.079)"/></g><path class="e" d="M190.386,95.768h6.445L179.788,139.5h8.307l-4.507,14.016H255.9L251.686,139.5h8.307L242.95,95.768h4.726L218.745,21.3Z" transform="translate(176.164 1571.079)"/><path class="e" d="M190.417,95.6h6.445l-17.044,43.638h8.307L172.8,178.454h94.241l-15.325-39.217h8.307L242.98,95.6h4.726L218.775,21.3Z" transform="translate(-73.942 1547.079)"/><path class="f" d="M200.1,131.5v15.667h15.755V131.5" transform="translate(-200.738 1578.033)"/><path class="e" d="M190.348,95.6h6.445l-8.222,21.222.1,61.6,32.326.033h45.975l-15.325-39.217h8.307L242.912,95.6h4.726L218.707,21.3" transform="translate(-212.47 1531.079)"/><path class="j" d="M200.1,131.5v21.819h15.755V131.5" transform="translate(-209.777 1401.033)"/><path class="e" d="M197.172,79.321l.2,98.2,23.589.933h45.975l-15.325-39.217h8.307L242.874,95.6H247.6L218.67,21.3Z" transform="translate(-221.472 1354.079)"/><g transform="translate(-728.513 175)"><path class="f" d="M200.1,131.5v21.819h15.687V131.5" transform="translate(656.16 1188.033)"/><path class="e" d="M190.341,95.6h6.417l-16.97,43.638h8.271L172.8,178.454h93.836l-15.259-39.217h8.271L242.678,95.6h4.706L218.577,21.3Z" transform="translate(644.528 1141.079)"/></g><g transform="translate(-603.977 115)"><path class="f" d="M200.1,131.5v21.819h15.687V131.5" transform="translate(656.16 1188.033)"/><path class="e" d="M190.341,95.6h6.417l-16.97,43.638h8.271L172.8,178.454h93.836l-15.259-39.217h8.271L242.678,95.6h4.706L218.577,21.3Z" transform="translate(644.528 1141.079)"/></g><g transform="translate(666.171 1452.3)"><path class="k" d="M-339.8,6235.8c430.251-186.1,858.393-122.3,1238.529-203.4v206.1S-187.136,6235.8-339.8,6235.8Z" transform="translate(339.8 -5966.3)"/><g transform="translate(357.638)"><g transform="translate(23.776 145.612)"><path class="l" d="M0,0V1.06L1.674.3l1.369.909L4.412.606l1.369.757L7.3.757l1.369.757L9.89.909l1.217.757,1.369-.606c.152.3,1.521.757,1.521.757L15.215.757l1.978.909V.606L7.511.274Z" transform="translate(3.309 101.17)"/><path class="h" d="M3.221,90.595c-1.843,0-3.254-1.678-3.253-5.543L0,7.18C0,3.314,1.58,0,3.423,0h0C5.266,0,6.845,3.311,6.844,7.177L6.814,85.049C6.813,88.915,5.064,90.594,3.221,90.595Z" transform="matrix(0.996, 0.087, -0.087, 0.996, 21.741, 0)"/><path class="d" d="M4.845,1.064S.86-1.33.135,1.064,1.584,14.306,7.382,15.9,4.845,1.064,4.845,1.064Z" transform="translate(8.482 79.659)"/><path class="f" d="M13.2.808a11.164,11.164,0,0,1,8.368,0C24.914,2.474,20.2,13.23,20.5,15.957A12.537,12.537,0,0,0,21.871,20.5L1.939,20.2s-5.477-8.483,1.978-9.393c4.385-.535,10.8,3.787,10.8,3.787a40.7,40.7,0,0,1-1.674-7.272A26.031,26.031,0,0,1,13.2.808Z" transform="translate(0 80.668)"/></g><g transform="translate(91.958 145.52)"><path class="l" d="M0,1.818V.757l1.837.757L3.34.606l1.5.606,1.5-.757,1.67.606L9.518.3l1.336.606L12.19.151l1.5.606C13.86.455,15.363,0,15.363,0L16.7,1.06,18.87.151v1.06L8.244,1.544Z" transform="translate(27.652 103.08) rotate(180)"/><path class="h" d="M3.523,0C1.5-.015-.032,1.653,0,5.521l.691,77.93c.034,3.869,1.8,7.2,3.818,7.215h0c2.022.016,3.725-3.286,3.691-7.155L7.512,5.582C7.477,1.713,5.545.018,3.523,0Z" transform="matrix(-0.996, 0.087, -0.087, -0.996, 16.077, 90.317)"/><path class="d" d="M5.456,14.947s-4.488,2.393-5.3,0S1.784,1.7,8.313.109,5.456,14.947,5.456,14.947Z" transform="translate(21.975 95.761) rotate(180)"/><path class="f" d="M14.485,19.694a13.352,13.352,0,0,0,9.184,0c3.674-1.667-1.5-12.422-1.169-15.149A11.787,11.787,0,0,1,24,0L2.128.3S-3.883,8.786,4.3,9.7c4.813.535,11.856-3.787,11.856-3.787a37.725,37.725,0,0,0-1.837,7.272A23.749,23.749,0,0,0,14.485,19.694Z" transform="translate(31.284 101.262) rotate(180)"/></g><g transform="translate(65.678 44.39)"><path class="d" d="M41.2,2.175C39.865.409,37.5-1,34.882,1.206c0,0-32.146,8.023-34.3,15.692C-1,24.361,1.5,55.43,1.5,55.43c.041,3.875,1.806,7.213,3.825,7.233h0c2.019.02,4.788-2.541,3.673-7.159,0,0-.61-26.463-.638-36.538,5.713-4.8,14.919-6.4,31.2-11.578C42.294,6.033,42.538,3.94,41.2,2.175Z" transform="matrix(-0.799, 0.602, -0.602, -0.799, 71.389, 49.958)"/><path class="h" d="M62.726,84.959c.566-1.265,5.768-3.4,8.588-.008C74.367,88.627,60,89.22,62.726,84.959Z" transform="translate(-28.703 -15.525)"/><path class="f" d="M62.987,84.481c-4.412,3.182.3,8.786,3.2,10s11.107,3.182,10.8-.909-6.542-9.09-6.542-9.09S67.4,81.3,62.987,84.481Z" transform="translate(-28.398 -14.039)"/></g><g transform="translate(0 43.875)"><path class="d" d="M43.523,61.173c-1.59,1.957-4.286,3.609-6.989,1.473,0,0-34.627-6.154-36.441-14.082C-1.1,40.811,3.857,7.887,3.857,7.887,4.18,3.8,6.352.155,8.564-.01h0c2.212-.165,5.062,2.336,3.509,7.283,0,0-2.563,27.935-3.316,38.556C14.669,50.479,24.636,51.5,42.1,55.8,45,57.027,45.113,59.216,43.523,61.173Z" transform="matrix(0.799, 0.602, -0.602, 0.799, 38.459, 0)"/><path class="h" d="M72.739,84.959c-.651-1.265-6.628-3.4-9.867-.008C59.363,88.627,75.873,89.22,72.739,84.959Z" transform="translate(-32.713 -13.494)"/><path class="f" d="M77.277,84.481c5.07,3.182-.35,8.786-3.671,10s-12.762,3.182-12.412-.909,7.517-9.09,7.517-9.09S72.207,81.3,77.277,84.481Z" transform="translate(-37.902 -12.008)"/></g><path class="f" d="M0,0H62.017l1.8,27.788H46.924l-2.282-9.925H18.168l-1.674,9.925H0Z" transform="translate(40.563 126.965)"/><rect class="h" width="44.123" height="43.933" transform="translate(46.711 4.848)"/><g transform="translate(29.653 44.236)"><path class="e" d="M829.092,185.04h-74.4L765.8,118.383h55.906Z" transform="translate(-753.305 -103.082)"/><g transform="translate(19.459 49.212)"><path class="f" d="M797.872,157.8H761.2V132.484h36.672Z" transform="translate(-761.2 -132.484)"/></g><g transform="translate(3.958 31.928) rotate(7)"><path class="f" d="M6.826,32.109l-6.725,0L-.007,13.664S1.411,0,2.963,0l3.88,0Z" transform="translate(1.16 0.229)"/><path class="h" d="M7.979.227l-7,14.9L0,0Z" transform="translate(0 0)"/></g><g transform="translate(66.29 34.798) rotate(-5)"><path class="f" d="M.012,31l6.8,0,.113-17.808S5.491,0,3.922,0H0Z" transform="translate(0 0.222)"/><path class="h" d="M0,.223,7.077,14.608,8.067,0Z" transform="translate(0.024 0)"/></g><path class="d" d="M16.731,57.7V69.151H83.819l-1-11.356Z" transform="translate(-9.123 24.168)"/><path class="k" d="M0,0,19.589,1.667,31.783,0l11.57,1.667L62.381,0V19.694L43.353,17.119,31.58,19.694,19.589,17.119,0,19.694Z" transform="translate(6.407 0)"/><path class="h" d="M37.457,50.749l18.152-11.56H18.937Z" transform="translate(0.522 10.023)"/><path class="f" d="M25.978,8.689l.152,22.572H31V8.689Z" transform="translate(-3.29 -8.689)"/><path class="f" d="M25.978,8.689l.152,22.572H31V8.689Z" transform="translate(22.575 -8.689)"/></g><path class="f" d="M1153.545,1479.2v15.767l-1.727,3.052-3.166,1.275-35.7-.507-1.555-3.82v-11.734l2.764-4.033Z" transform="translate(-1064.841 -1461.627)"/><path class="d" d="M1135.8,1483.01l25.1-11.21h-15.671v2.424Z" transform="translate(-1054.399 -1461.196)"/><path class="k" d="M1112.9,1486.615l34.842.152,9.433-8.787v-8.332l-4.869-4.848h-34.081l-5.325,4.848Z" transform="translate(-1066.341 -1464.8)"/></g></g><path class="f" d="M231.7,1505.3c0-.8,9.943-12.6,9.943-12.6l11.248-3.8,10.646,5.4,3.917,5.5-1.707,7.7-16.17,3Z" transform="translate(1.106)"/><path class="f" d="M231.7,1505.3c0-.8,9.943-12.6,9.943-12.6l11.248-3.8,10.646,5.4,3.917,5.5-1.707,7.7-16.17,3Z" transform="translate(201.971 28)"/><path class="f" d="M287.818,1516.352c-.5.148-4.118-1.452-4.118-1.452l6.829-6.3,8.537,2.4v5.352Z" transform="translate(-14.738 -2)"/><path class="f" d="M287.818,1516.352c-.5.148-4.118-1.452-4.118-1.452l6.829-6.3,8.537,2.4v5.352Z" transform="translate(-78.01 126)"/><path class="f" d="M287.818,1516.352c-.5.148-4.118-1.452-4.118-1.452l6.829-6.3,8.537,2.4v5.352Z" transform="translate(118.837 16)"/><path class="f" d="M264.016,1521.4l-3.616,3,3.616,1.4,4.118-1.4v-3Z" transform="translate(-7.809 -7)"/><path class="f" d="M264.016,1521.4l-3.616,3,3.616,1.4,4.118-1.4v-3Z" transform="translate(-31.912 126)"/><path class="f" d="M264.016,1521.4l-3.616,3,3.616,1.4,4.118-1.4v-3Z" transform="translate(125.766 11)"/><path class="f" d="M2.794,4.243C2.293,4.391,0,0,0,0L8.528,2.421l.011,5.36Z" transform="matrix(0.799, -0.602, 0.602, 0.799, 480.508, 1533.893)"/><path class="f" d="M5.725,6.09C5.222,6.239,0,1.8,0,1.8L11.851,0,22.2,1.4l-7.03,4.69Z" transform="translate(440.801 1550.7) rotate(180)"/><g transform="translate(768.11 1521.681)"><path class="h" d="M549.4,201.14l11.265-11.086L557,186.793l6.68-5.739.393-8.738,8.252-8.217-.655,12.651,2.1,6.26,4.716,5.739-2.227,4.043,6.418,9Z" transform="translate(-525.37 -164.1)"/><path class="e" d="M231.7,1505.3c0-.8,9.943-12.6,9.943-12.6l11.248-3.8,10.646,5.4,3.917,5.5-1.707,7.7-16.17,3Z" transform="translate(-231.7 -1464.681)"/><path class="e" d="M.018,13.306c0-.8,10.025-10.091,10.025-10.091L29.413.039l5.524,2.208.811,5.6-1.7,7.7-14.857-.02Z" transform="translate(39.617 33.537) rotate(-19)"/><path class="f" d="M231.7,1505.3c0-.8,4.319-7.8,4.319-7.8l11.851-3.2,6.528,3.2,4.62,5.5L256,1509l-16.873,1.2Z" transform="translate(-202.575 -1461.681)"/></g></g></svg>