<?xml version="1.0" encoding="utf-8"?>
<!-- Generator: Adobe Illustrator 21.0.2, SVG Export Plug-In . SVG Version: 6.00 Build 0)  -->
<svg version="1.1" id="Layer_1" xmlns="http://www.w3.org/2000/svg" xmlns:xlink="http://www.w3.org/1999/xlink" x="0px" y="0px"
	 viewBox="0 0 421.1 116.7" style="enable-background:new 0 0 421.1 116.7;" xml:space="preserve">
<style type="text/css">
	.st0{fill:#2E50A2;}
	.st1{fill:#FFFFFF;}
</style>
<g transform="translate(-724.516 -932.258)">
	<path class="st0" d="M808.4,1049"/>
	<polyline class="st0" points="1145.6,1049 1145.6,1005.5 1102.4,968.7 1084.4,986.7 1056.5,958.7 1024.3,990.9 992.1,958.7 
		975.7,975.1 936.9,936.2 912.7,960.4 907,954.7 883,978.7 877.3,973 859.7,990.6 808.4,939.4 783.2,964.5 773.5,954.8 
		724.5,1003.8 724.5,1048.8 	"/>
	<polyline class="st1" points="1102.4,968.7 1105.6,965.5 1145.6,1005.5 1142.4,1008.7 	"/>
	
		<rect x="803.5" y="940.7" transform="matrix(0.7071 -0.7071 0.7071 0.7071 -459.6611 857.9254)" class="st1" width="4.5" height="86.3"/>
	
		<rect x="1085.3" y="945.2" transform="matrix(0.7071 -0.7071 0.7071 0.7071 -379.1487 1057.8909)" class="st1" width="4.2" height="82.7"/>
	
		<rect x="1020.9" y="945.3" transform="matrix(0.7071 -0.7071 0.7071 0.7071 -398.0186 1012.3729)" class="st1" width="4.2" height="82.7"/>
	
		<rect x="972.8" y="918.9" transform="matrix(0.7071 -0.7071 0.7071 0.7071 -400.8941 974.15)" class="st1" width="5.4" height="104.2"/>
	
		<rect x="937.3" y="940.7" transform="matrix(0.7071 -0.7071 0.7071 0.7071 -420.6331 952.5958)" class="st1" width="4.5" height="86.6"/>
	
		<rect x="843.2" y="922.4" transform="matrix(0.7071 -0.7071 0.7071 0.7071 -440.2797 883.0093)" class="st1" width="5.1" height="101.2"/>
	
		<rect x="901.4" y="961.4" transform="matrix(0.7071 -0.7071 0.7071 0.7071 -440.0408 930.5111)" class="st1" width="3.6" height="70"/>
</g>
</svg>
