<svg xmlns="http://www.w3.org/2000/svg" viewBox="-7876.948 1163.671 1822.621 535.515"><defs><style>.a,.b{fill:none;stroke:#bbbdbf;stroke-miterlimit:10;}.a{stroke-width:0.5px;}.c{fill:#2e50a2;}</style></defs><g transform="translate(-7603.115 -374.158)"><line class="a" x1="265.755" y2="221.321" transform="translate(729.942 1728.263)"/><line class="b" x1="265.755" y2="221.744" transform="translate(-39.393 1844.213)"/><line class="a" x1="265.755" y2="221.744" transform="translate(219.168 1851.407)"/><line class="a" x1="42.14" y2="41.395" transform="translate(-272.385 1728.263)"/><line class="a" x1="265.755" y2="221.744" transform="translate(-271.293 1730.802)"/><line class="b" x1="266.178" y2="221.744" transform="translate(1041.55 1538.213)"/><circle class="c" cx="6.348" cy="6.348" r="6.348" transform="translate(-97.368 1904.304)"/><circle class="c" cx="6.348" cy="6.348" r="6.348" transform="translate(206.87 1687.502)"/><circle class="c" cx="6.348" cy="6.348" r="6.348" transform="translate(309.728 1859.871)"/><circle class="c" cx="2.539" cy="2.539" r="2.539" transform="translate(301.264 1812.052)"/><circle class="c" cx="1.693" cy="1.693" r="1.693" transform="translate(91.792 1808.243)"/><circle class="c" cx="2.539" cy="2.539" r="2.539" transform="translate(-200.2 1587.345)"/><circle class="c" cx="2.539" cy="2.539" r="2.539" transform="translate(403.673 1642.781)"/><circle class="c" cx="2.539" cy="2.539" r="2.539" transform="translate(-36.43 1840.405)"/><circle class="c" cx="2.539" cy="2.539" r="2.539" transform="translate(-273.832 1917.423)"/><circle class="c" cx="2.539" cy="2.539" r="2.539" transform="translate(-235.746 1765.079)"/><circle class="c" cx="2.539" cy="2.539" r="2.539" transform="translate(-271.293 1648.706)"/><circle class="c" cx="2.539" cy="2.539" r="2.539" transform="translate(81.636 1906.843)"/><circle class="c" cx="2.539" cy="2.539" r="2.539" transform="translate(-80.441 1946.199)"/><circle class="c" cx="2.539" cy="2.539" r="2.539" transform="translate(-143.071 1926.31)"/><circle class="c" cx="2.539" cy="2.539" r="2.539" transform="translate(-111.333 1863.256)"/><circle class="c" cx="2.539" cy="2.539" r="2.539" transform="translate(280.952 1931.811)"/><circle class="c" cx="2.539" cy="2.539" r="2.539" transform="translate(390.132 1861.14)"/><line class="a" x1="265.755" y2="221.744" transform="translate(1129.072 1843.802)"/><circle class="c" cx="6.348" cy="6.348" r="6.348" transform="translate(1366.998 1601.304)"/><circle class="c" cx="6.348" cy="6.348" r="6.348" transform="translate(1536.093 1859.871)"/><circle class="c" cx="2.539" cy="2.539" r="2.539" transform="translate(1527.63 1812.052)"/><circle class="c" cx="1.693" cy="1.693" r="1.693" transform="translate(1318.157 1808.243)"/><circle class="c" cx="2.539" cy="2.539" r="2.539" transform="translate(1026.166 1587.345)"/><circle class="c" cx="2.539" cy="2.539" r="2.539" transform="translate(1343.935 1592.405)"/><circle class="c" cx="2.539" cy="2.539" r="2.539" transform="translate(1447.533 1657.423)"/><circle class="c" cx="2.539" cy="2.539" r="2.539" transform="translate(990.619 1765.079)"/><circle class="c" cx="2.539" cy="2.539" r="2.539" transform="translate(955.072 1648.706)"/><circle class="c" cx="2.539" cy="2.539" r="2.539" transform="translate(1362.001 1671.843)"/><circle class="c" cx="2.539" cy="2.539" r="2.539" transform="translate(925.871 1630.31)"/><circle class="c" cx="2.539" cy="2.539" r="2.539" transform="translate(1417.609 1587.256)"/><circle class="c" cx="2.539" cy="2.539" r="2.539" transform="translate(1507.317 1931.811)"/></g></svg>