<svg version="1" xmlns="http://www.w3.org/2000/svg" width="816" height="816" viewBox="0 0 612.000000 612.000000"><path d="M159.9 37.7c-.1.5 0 1.2.1 1.8.1.5.2 3.2.2 6 0 2.7-.1 5.4-.2 6-.1.5-.1 1.4 0 2 .1.5.2 2.6.1 4.5v10c-.1 3.6 0 9.8.2 13.8.1 3.9-.2 7.2-.6 7.2-.5 0-.5.4-.2 1 .6.9.9 9.4.5 11.5-.1.5-.1 1.4 0 2 .1.5.2 3.2.2 6 0 2.7-.1 5.4-.2 6-.1.5-.1 1.4 0 2 .1.5.1 3.7 0 7s-.1 6.7-.1 7.5c.1 1.5 0 11.6-.1 13.5 0 .5.1 1.4.2 2 .1.5.2 2.1.1 3.5l-.1 2.5-15.8.1c-23.4 0-33.1 1-48.2 4.9-26.4 6.8-44.2 17.9-62.7 38.9-1.8 2-3.3 3.9-3.3 4.1 0 .3-1.6 2.7-3.5 5.3-2.9 4.1-11.8 20.5-12 22.2 0 .3-.6 1.5-1.3 2.7-.7 1.3-1 2.3-.7 2.3.3 0-.1 1.3-1 3-2.1 4.1-8.1 27.3-9 35-.2 1.4-.7 5.4-1.2 9-.9 7.4-.9 45.2.1 52 1.1 7.8 1.5 10.4 2.1 13 .3 1.4.8 3.8 1.1 5.5 1.2 6 3 12.4 6.2 22 2.3 7 11.2 26.2 13.4 29 .4.5 3.5 4.7 6.8 9.2 6 8.1 21.4 23.3 23.6 23.3.7 0 1.4.4 1.6.9.3.8 13.5 9.1 14.6 9.1.3 0 2.8 1.1 5.6 2.5 6.4 3 21.8 7.6 30.8 9.1 1.6.2 4.3.7 6 1 1.8.3 12.8.8 24.3 1.1 11.6.3 21.4.9 21.9 1.3.7.7 1.2 10 .6 12.5-.1.5-.2 1.3-.1 1.7.2.5.2 3 .2 5.8 0 2.7 0 5.3-.2 5.7-.1.5 0 1.2.1 1.8.1.5.2 3.2.2 6 0 2.7-.1 5.4-.2 6-.1.5-.1 1.4 0 2 .2 1.4.3 18.8 0 20-.1.5-.1 1.4 0 2 .1.5.1 3.5 0 6.5-.1 6.1-.1 5.7.1 15.5 0 3.8 0 7.4-.1 8-.1.5-.1 1.4 0 2 .2 1.3.2 8.7 0 10-.1.5-.1 1.4 0 2 .1.5.2 2.7.2 4.7v3.8H612l-.2-45.7-.3-45.8H491.7l-7.2-8.5c-6.5-7.6-48-57.7-55.9-67.3-1.7-2.2-3.8-4.6-4.6-5.4-.8-.9-3.5-4.1-6-7.2-5.4-6.8-6.7-8.3-10.2-12.2-1.6-1.6-2.8-3.2-2.8-3.4 0-.8-4.3-5.5-5-5.5-.4 0-.7 24.3-.6 54.1.1 32.3-.3 54.3-.8 54.7-1.2.7-132 .7-133.2 0-.5-.4-.9-72.6-.8-177.5V129.5l67.6-.3 67.5-.2 6.4 7.7c3.5 4.3 7.3 8.9 8.5 10.3 1.3 1.4 6.1 7.2 10.9 13 14.2 17.3 15.9 19.3 18.3 21.8 1.2 1.2 2.2 2.6 2.2 2.9 0 .3 1.7 2.5 3.8 4.8 2 2.3 4.4 5 5.2 6.1.8 1 3.8 4.6 6.5 7.9 2.8 3.3 5.8 6.9 6.7 8 14 16.9 22.9 27.5 23.1 27.5.1 0 .2-24.9.2-55.3v-55.3l59 .1c32.4 0 59.5-.1 60.1-.3.9-.2 1.2-12.8 1.2-45.8V37H385.9c-124.3 0-226 .3-226 .7zM156 241.4c1.4.2 2.8.5 3.1.5.3.1.5 29.3.5 64.9v64.8l-17.5-.2c-13.2-.1-18.7-.6-21.9-1.8-13.5-4.9-20.3-15.4-24.8-38.6-2.3-11.4-2.2-38.3.1-50 2.1-10.6 3-13.8 6-19.9 6.2-12.6 14.5-18.7 27.4-19.9 6.9-.7 22.9-.6 27.1.2z"/></svg>