<svg xmlns="http://www.w3.org/2000/svg" width="87px" height="42px" viewBox="0 0 87 42" version="1.1">
	<defs>
		<polygon id="path-11small" points="4.21818182e-05 0 86.7051386 0 86.7051386 42 4.21818182e-05 42">
		</polygon>
	</defs>
	<g id="Desktopsmall" stroke="none" stroke-width="1" fill="none" fill-rule="evenodd">
		<g id="Desktop-Stories-AlbertExperiment" transform="translate(-56.000000, -48.000000)">
			<g id="Trailer-White" transform="translate(56.000000, 48.000000)">
				<g id="Page-11small">
					<mask id="mask-2small" fill="#000">
						<use href="#path-11small">
						</use>
					</mask>
					<path d="M79.8537673,35.1821904 L80.3952975,35.7266784 L84.97464,35.7266784 L84.97464,36.0956904 L84.6764989,36.0956904 L84.6764989,36.3204744 C84.6764989,36.3204744 86.0930487,36.1224864 86.4164989,36.0476424 C86.7410458,35.9738904 86.6928742,35.7759864 86.6928742,35.5288584 L86.6928742,34.8369504 C86.6928742,34.8369504 86.813936,34.3673904 86.2953527,34.1671344 C85.7695985,33.9691464 84.8500349,33.8708664 84.8500349,33.8708664 C84.8500349,33.8708664 84.9975869,33.1787064 84.8752596,32.8813464 L84.9241062,31.9656624 L84.600656,31.9656624 C84.600656,31.9656624 81.6248131,15.1123224 79.634928,10.6241184 C77.6468989,6.1288584 72.5741978,1.7417904 65.2812145,1.2101544 C65.2812145,1.2101544 64.8183956,1.1516904 60.7041498,1.2101544 C56.5938691,1.2816384 50.9584625,1.3437984 50.9584625,1.3437984 L50.9584625,0.6200544 L50.8731709,0.4983384 L50.8731709,0.1979544 C50.8731709,0.1979544 50.9196553,-3.36e-05 50.5379942,-3.36e-05 L43.1180436,-3.36e-05 C43.1180436,-3.36e-05 42.0413105,0.2887584 41.6415113,0.5831784 L41.31224,0.5831784 L41.31224,1.4286384 C41.31224,1.4286384 24.4346196,1.6464504 24.2358589,1.6775304 C24.0371825,1.7085264 19.7618022,1.7729544 17.1416364,3.4350624 C14.5213862,5.1095184 12.4663724,7.5713904 11.4221193,12.1309944 C11.4221193,12.1309944 10.5611884,15.4248864 10.0473295,25.9389144 L9.54806545,26.2374504 L8.58547636,32.5429944 L8.38907782,33.0102024 L8.38907782,33.9399144 L0.712661818,34.0617144 C0.712661818,34.0617144 0.215844364,34.1425224 0.184629818,34.6224984 C0.184629818,34.6224984 0.151137455,34.7654664 0.184629818,34.9657224 L4.21818182e-05,35.1202824 L4.21818182e-05,35.4305784 L5.28854545,35.4305784 L5.44023127,35.7114744 L5.44023127,37.8181104 C5.44023127,37.8181104 5.04515636,37.8321384 4.88874618,38.1272304 L4.38652945,38.1272304 L4.38652945,38.9198544 L5.40555782,39.9328944 C5.40555782,39.9328944 4.956912,41.7712344 6.47275782,41.8438104 C7.99155636,41.9175624 8.63896291,41.4714384 8.44028655,39.8331864 C8.44028655,39.8331864 8.38907782,39.1483344 7.49178618,39.0722304 L7.32187782,38.0510424 L6.42399564,38.0510424 L6.42399564,35.4563664 C6.42399564,35.4563664 9.48217745,35.7501984 11.9442458,35.7501984 C14.4102793,35.7501984 17.1416364,35.6998824 17.1416364,35.6998824 L17.1416364,35.4305784 L18.6833818,35.4305784 L19.0073382,35.6517504 L26.888336,35.6517504 L27.2852669,35.4305784 L42.8769324,35.4305784 L43.1261425,35.2537584 L46.3849411,35.1319584 C46.3849411,35.1319584 46.1608713,40.7970024 51.3424858,41.8578384 C56.4151869,42.8858304 59.0405833,38.1014424 58.5673033,35.1588384 L60.9804407,35.1588384 L61.1792015,35.4023544 L62.9673731,35.4023544 C62.9673731,35.4023544 64.5119869,35.7759864 65.4798909,35.7759864 L74.9532524,35.7759864 C74.9532524,35.7759864 75.5018691,35.6517504 75.7477047,35.2091544 L79.8537673,35.1821904 Z" id="Fill-11small" fill="#000000" mask="url(#mask-22small)">
					</path>
				</g>
			</g>
		</g>
	</g>
</svg>
