<?xml version="1.0" encoding="UTF-8"?>
<svg width="90px" height="27px" viewBox="0 0 90 27" version="1.1" xmlns="http://www.w3.org/2000/svg" xmlns:xlink="http://www.w3.org/1999/xlink">
    <!-- Generator: Sketch 42 (36781) - http://www.bohemiancoding.com/sketch -->
    <title>Xello Logo Copy</title>
    <desc>Created with Sketch.</desc>
    <defs>
        <polygon id="path-1" points="0.301624138 21.9767442 20.2083828 21.9767442 20.2083828 0.177760465 0.301624138 0.177760465 0.301624138 21.9767442"></polygon>
        <polygon id="path-3" points="0.0515793103 21.9767442 22.0686207 21.9767442 22.0686207 0.177823256 0.0515793103 0.177823256"></polygon>
    </defs>
    <g id="Symbols" stroke="none" stroke-width="1" fill="none" fill-rule="evenodd">
        <g id="Footer" transform="translate(-638.000000, 0.000000)">
            <g id="Xello-Logo-Copy" transform="translate(638.000000, 0.000000)">
                <g id="Page-1">
                    <path d="M0,24.4054884 C0,23.7986163 0.221275862,23.2448023 0.663827586,22.7437326 L6.53058621,15.6223256 L1.09582759,9.09460465 C0.834517241,8.77751163 0.639,8.47454651 0.508965517,8.18445349 C0.37862069,7.89498837 0.313137931,7.59045349 0.313137931,7.27398837 C0.313137931,6.58862791 0.528206897,6.04894186 0.958655172,5.65273256 C1.38817241,5.2562093 1.90334483,5.05936047 2.50355172,5.05936047 C2.97217241,5.05936047 3.38368966,5.16484884 3.735,5.37551163 C4.08662069,5.58648837 4.40503448,5.87752326 4.69272414,6.2457907 L9.34758621,12.4181163 L14.0794138,6.28440698 C14.3655517,5.91613953 14.6712414,5.62039535 14.9971034,5.39466279 C15.3248276,5.17238372 15.6953793,5.05936047 16.1121724,5.05936047 C16.7384483,5.05936047 17.2672759,5.2562093 17.6961724,5.65273256 C18.1263103,6.04894186 18.3416897,6.54875581 18.3416897,7.15531395 C18.3416897,7.49909302 18.2836552,7.79577907 18.1663448,8.04568605 C18.0493448,8.29716279 17.8861034,8.54016279 17.676931,8.77751163 L12.0845172,15.5422674 L17.873069,22.4661977 C18.1328276,22.7826628 18.3283448,23.0871977 18.4596207,23.3760349 C18.5890345,23.6673837 18.6545172,23.969407 18.6545172,24.286186 C18.6545172,24.9728023 18.4397586,25.5118605 18.009931,25.9077558 C17.5807241,26.3042791 17.0627586,26.5020698 16.4650345,26.5020698 C15.9957931,26.5020698 15.5848966,26.3962674 15.2326552,26.1849767 C14.8804138,25.9746279 14.5604483,25.6710349 14.274931,25.2754535 L9.26906897,18.7477326 L4.2632069,25.2754535 C3.97613793,25.6189186 3.67044828,25.9077558 3.34365517,26.1457326 C3.01717241,26.3833953 2.63327586,26.5020698 2.18948276,26.5020698 C1.59144828,26.5020698 1.07565517,26.3042791 0.646137931,25.9077558 C0.215689655,25.5118605 0,25.0126744 0,24.4054884" id="Fill-1" fill="#727271"></path>
                    <g id="Group-5" transform="translate(21.413793, 4.722583)">
                        <mask id="mask-2" fill="white">
                            <use xlink:href="#path-1"></use>
                        </mask>
                        <g id="Clip-4"></g>
                        <path d="M15.5935552,9.59353953 C15.5150379,8.82906279 15.3452793,8.11042326 15.0845897,7.43730698 C14.822969,6.76513256 14.471969,6.17835349 14.0284862,5.67728372 C13.5850034,5.17652791 13.0577276,4.78691163 12.4444862,4.50937674 C11.8327966,4.23372558 11.134831,4.09495814 10.3530724,4.09495814 C8.8929,4.09495814 7.68752069,4.60324884 6.73507241,5.6173186 C5.78355517,6.63327209 5.20445172,7.95972558 4.99527931,9.59353953 L15.5935552,9.59353953 Z M18.3311069,19.2077372 C17.3923138,20.0516442 16.3234862,20.7247605 15.1236931,21.2252023 C13.9245207,21.7253302 12.5161759,21.976807 10.8999,21.976807 C9.41427931,21.976807 8.02579655,21.713086 6.73507241,21.1859581 C5.44527931,20.6588302 4.3236931,19.9200977 3.37248621,18.9713302 C2.42003793,18.020993 1.67086552,16.8810279 1.12341724,15.5476674 C0.57627931,14.2171326 0.301624138,12.7456326 0.301624138,11.1372488 L0.301624138,11.0578186 C0.301624138,9.55429535 0.54927931,8.14401628 1.04521034,6.82509767 C1.54021034,5.50555116 2.23786552,4.35114419 3.13724483,3.3628186 C4.03662414,2.37386512 5.09955517,1.59620233 6.32448621,1.02888837 C7.55034828,0.462202326 8.90748621,0.177760465 10.3918655,0.177760465 C12.0345207,0.177760465 13.4686241,0.488260465 14.6947966,1.10863256 C15.9191069,1.72743488 16.9423138,2.53209767 17.7641069,3.52167907 C18.5855897,4.50937674 19.1975897,5.6119814 19.6022793,6.82509767 C20.0057276,8.03821395 20.2083828,9.25133023 20.2083828,10.4641326 C20.2083828,11.1507488 19.9855552,11.7048767 19.5433138,12.1255744 C19.0995207,12.5487837 18.5784517,12.7594465 17.9791759,12.7594465 L5.03438276,12.7594465 C5.29352069,14.4748884 5.96541724,15.7850163 7.0479,16.6957953 C8.12914138,17.6053186 9.44003793,18.0602372 10.9787276,18.0602372 C11.9681069,18.0602372 12.8615897,17.8963535 13.6566931,17.5660744 C14.4533483,17.2361093 15.1891759,16.7946907 15.8666586,16.2408767 C16.0482103,16.1093302 16.2244862,16.0038419 16.3945552,15.9237837 C16.5649345,15.8452953 16.7921069,15.8054233 17.0788655,15.8054233 C17.5999345,15.8054233 18.0434172,15.9906558 18.4080724,16.3592372 C18.7742793,16.7287605 18.9555207,17.1899581 18.9555207,17.7434581 C18.9555207,18.0341791 18.8977966,18.304493 18.7807966,18.554714 C18.6625552,18.8058767 18.512969,19.0231326 18.3311069,19.2077372 L18.3311069,19.2077372 Z" id="Fill-3" fill="#727271" mask="url(#mask-2)"></path>
                    </g>
                    <path d="M46.7452862,2.37392791 C46.7452862,1.71462558 46.965631,1.15390465 47.4081828,0.691451163 C47.8516655,0.230881395 48.4133897,0.000125581395 49.0914931,0.000125581395 C49.7686655,0.000125581395 50.3353552,0.230881395 50.7915621,0.691451163 C51.247769,1.15390465 51.4768034,1.71462558 51.4768034,2.37392791 L51.4768034,24.0492767 C51.4768034,24.7343233 51.247769,25.3016372 50.7915621,25.7502767 C50.3353552,26.1982884 49.7686655,26.4227651 49.0914931,26.4227651 C48.4391483,26.4227651 47.883631,26.1982884 47.4283552,25.7502767 C46.9737,25.3016372 46.7452862,24.7343233 46.7452862,24.0492767 L46.7452862,2.37392791 Z" id="Fill-6" fill="#727271"></path>
                    <path d="M57.9294,2.37392791 C57.9294,1.71462558 58.1512966,1.15390465 58.5932276,0.691451163 C59.0376414,0.230881395 59.5975034,0.000125581395 60.2759172,0.000125581395 C60.9540207,0.000125581395 61.5200897,0.230881395 61.9769172,0.691451163 C62.4325034,1.15390465 62.6612276,1.71462558 62.6612276,2.37392791 L62.6612276,24.0492767 C62.6612276,24.7343233 62.4325034,25.3016372 61.9769172,25.7502767 C61.5200897,26.1982884 60.9540207,26.4227651 60.2759172,26.4227651 C59.6232621,26.4227651 59.0689862,26.1982884 58.6137103,25.7502767 C58.1568828,25.3016372 57.9294,24.7343233 57.9294,24.0492767 L57.9294,2.37392791 Z" id="Fill-8" fill="#727271"></path>
                    <g id="Group-12" transform="translate(67.655172, 4.722583)">
                        <mask id="mask-4" fill="white">
                            <use xlink:href="#path-3"></use>
                        </mask>
                        <g id="Clip-11"></g>
                        <path d="M11.0784414,17.783393 C12.0433034,17.783393 12.9107172,17.6056953 13.6803724,17.2496721 C14.4490966,16.8936488 15.1070276,16.4189512 15.6541655,15.8252651 C16.2025448,15.2309512 16.6196483,14.5330326 16.9067172,13.7286837 C17.1940966,12.9243349 17.3362345,12.073207 17.3362345,11.1762419 L17.3362345,11.0971256 C17.3362345,10.1744163 17.180131,9.3035093 16.8676138,8.48628837 C16.5541655,7.6693814 16.1178207,6.95702093 15.5567172,6.35046279 C14.9959241,5.74390465 14.3317862,5.26198605 13.562131,4.90596279 C12.7937172,4.55056744 11.9399586,4.37161395 11.0011655,4.37161395 C10.0626828,4.37161395 9.2079931,4.55056744 8.43926897,4.90596279 C7.67054483,5.26198605 7.01292414,5.73636977 6.46547586,6.33005581 C5.91616552,6.92342791 5.49937241,7.62291628 5.21323448,8.42663721 C4.92554483,9.23192791 4.78402759,10.0946721 4.78402759,11.0176953 L4.78402759,11.0971256 C4.78402759,11.9944047 4.9392,12.8514977 5.25264828,13.6684047 C5.56516552,14.4865674 6.00057931,15.1989279 6.56230345,15.8051721 C7.12371724,16.4117302 7.78723448,16.8936488 8.5572,17.2496721 C9.32592414,17.6056953 10.1669586,17.783393 11.0784414,17.783393 M11.0011655,21.9768698 C9.43671724,21.9768698 7.98337241,21.6936837 6.6402,21.1266837 C5.29764828,20.5599977 4.13695862,19.7889279 3.16030345,18.8122186 C2.18209655,17.8367651 1.41926897,16.6889512 0.871510345,15.3706605 C0.324682759,14.0517419 0.0515793103,12.6543349 0.0515793103,11.1762419 L0.0515793103,11.0971256 C0.0515793103,9.59360233 0.3312,8.18332326 0.892924138,6.8640907 C1.45216552,5.54548605 2.22182069,4.39139302 3.19971724,3.40243953 C4.1769931,2.41348605 5.33644138,1.62954419 6.68023448,1.04841628 C8.02185517,0.468544186 9.48916552,0.177823256 11.0784414,0.177823256 C12.669269,0.177823256 14.1356483,0.462265116 15.4794414,1.02895116 C16.8213724,1.59626512 17.9823724,2.37361395 18.9596483,3.3628814 C19.9381655,4.35089302 20.6994414,5.49933488 21.2484414,6.80443953 C21.7937172,8.10985814 22.0686828,9.5148 22.0686828,11.0176953 L22.0686828,11.0971256 C22.0686828,12.5742767 21.788131,13.9723116 21.2279586,15.2909163 C20.6665448,16.6098349 19.898131,17.7633 18.9202345,18.7522535 C17.943269,19.7424628 16.7760621,20.5270326 15.4201655,21.1069047 C14.0648897,21.6861488 12.5916828,21.9768698 11.0011655,21.9768698" id="Fill-10" fill="#727271" mask="url(#mask-4)"></path>
                    </g>
                    <path d="M74.4892759,15.7581733 L74.4892759,15.8115453 C74.4892759,16.414964 74.5957241,16.9929523 74.807069,17.5411151 C75.0171724,18.0921035 75.3098276,18.5727663 75.6875172,18.979964 C76.0655172,19.3890453 76.5124138,19.7124174 77.030069,19.9522779 C77.5480345,20.1921384 78.1137931,20.3117547 78.7282759,20.3117547 C79.3775172,20.3117547 79.9603448,20.1921384 80.478,19.9522779 C80.9959655,19.7124174 81.4397586,19.3931267 81.8072069,18.993464 C82.1755862,18.595057 82.457069,18.1238128 82.6510345,17.5819291 C82.8431379,17.0400453 82.9393448,16.4680221 82.9393448,15.8646035 L82.9393448,15.7622547 L74.4892759,15.7581733 Z" id="Fill-13" fill="#78BC42"></path>
                </g>
            </g>
        </g>
    </g>
</svg>