<svg xmlns="http://www.w3.org/2000/svg" viewBox="2131.447 4077.3 1280.953 341.211"><defs><style>.a{fill:#203d82;}.b{fill:none;stroke:#222;}.c{fill:#fff;}.d{fill:#222;}.e{fill:#797d7f;}.f{fill:#ccc;}</style></defs><g transform="translate(1516 2625)"><path class="a" d="M-316.1,6224.8c428.4-186.1,831-111.3,1209.5-192.4v192.4S-744.5,6410.9-316.1,6224.8Z" transform="translate(1003 -4514)"/><g transform="translate(1022.831 1440.1)"><g transform="translate(20.141 157.812)"><path class="b" d="M0,0V1.06L1.666.3l1.363.909L4.393.606l1.363.757L7.272.757l1.363.757L9.847.909l1.212.757,1.363-.606c.151.3,1.515.757,1.515.757L15.149.757l1.969.909V.606L7.479.274Z" transform="translate(3.294 101.17)"/><path class="c" d="M3.241,90.593C1.406,90.593,0,88.914,0,85.048V7.179C0,3.314,1.573,0,3.408,0h0C5.244,0,6.817,3.314,6.817,7.179V85.048C6.817,88.914,5.076,90.593,3.241,90.593Z" transform="matrix(0.996, 0.087, -0.087, 0.996, 21.647, 0)"/><path class="d" d="M4.824,1.064S.856-1.33.134,1.064,1.577,14.306,7.35,15.9,4.824,1.064,4.824,1.064Z" transform="translate(8.445 79.658)"/><path class="e" d="M13.142.808a11.072,11.072,0,0,1,8.332,0c3.333,1.667-1.363,12.422-1.06,15.149A12.574,12.574,0,0,0,21.777,20.5L1.931,20.2S-3.523,11.716,3.9,10.807c4.367-.535,10.756,3.787,10.756,3.787A40.846,40.846,0,0,1,12.99,7.322,26.142,26.142,0,0,1,13.142.808Z" transform="translate(0 80.668)"/></g><g transform="translate(88.03 157.72)"><path class="b" d="M0,1.818V.757l1.829.757,1.5-.909,1.5.606,1.5-.757,1.663.606L9.477.3l1.33.606,1.33-.757,1.5.606C13.8.455,15.3,0,15.3,0l1.33,1.06L18.788.151v1.06l-10.58.333Z" transform="translate(27.533 103.08) rotate(180)"/><path class="c" d="M3.508,0C1.5-.015-.032,1.653,0,5.521L.66,83.448c.033,3.869,1.786,7.2,3.8,7.214h0c2.013.016,3.71-3.287,3.678-7.156L7.477,5.579C7.445,1.71,5.521.016,3.508,0Z" transform="matrix(-0.996, 0.087, -0.087, -0.996, 16.008, 90.317)"/><path class="d" d="M5.433,14.947s-4.469,2.393-5.282,0S1.776,1.7,8.277.109,5.433,14.947,5.433,14.947Z" transform="translate(21.88 95.761) rotate(180)"/><path class="e" d="M14.423,19.694a13.242,13.242,0,0,0,9.145,0c3.658-1.667-1.5-12.422-1.164-15.149A11.819,11.819,0,0,1,23.9,0L2.119.3S-3.866,8.786,4.281,9.7c4.792.535,11.8-3.787,11.8-3.787a37.855,37.855,0,0,0-1.829,7.272A23.85,23.85,0,0,0,14.423,19.694Z" transform="translate(31.149 101.262) rotate(180)"/></g><g transform="translate(61.863 56.59)"><path class="d" d="M41.084,2.086c-1.329-1.76-3.689-3.159-6.3-.954,0,0-32.074,8.077-34.243,15.738-1.591,7.455.836,38.47.836,38.47.033,3.869,1.786,7.2,3.8,7.214h0c2.013.016,4.781-2.547,3.678-7.156,0,0-.554-26.421-.561-36.48C14,14.114,23.184,12.5,39.436,7.294,42.166,5.936,42.413,3.846,41.084,2.086Z" transform="matrix(-0.799, 0.602, -0.602, -0.799, 71.082, 49.958)"/><path class="c" d="M62.724,84.959c.564-1.265,5.743-3.4,8.551-.008C74.316,88.627,60.008,89.22,62.724,84.959Z" transform="translate(-28.848 -15.525)"/><path class="e" d="M62.979,84.481c-4.393,3.182.3,8.786,3.182,10s11.059,3.182,10.756-.909-6.514-9.09-6.514-9.09S67.372,81.3,62.979,84.481Z" transform="translate(-28.539 -14.039)"/></g><g transform="translate(-3.532 56.075)"><path class="d" d="M43.53,61.167c-1.582,1.95-4.266,3.594-6.967,1.456,0,0-34.544-6.216-36.371-14.135C-1.016,40.746,3.863,7.882,3.863,7.882,4.176,3.8,6.335.168,8.54.007h0c2.206-.161,5.053,2.342,3.515,7.279,0,0-2.5,27.887-3.227,38.489C14.733,50.43,24.674,51.475,42.1,55.8,44.991,57.032,45.112,59.217,43.53,61.167Z" transform="matrix(0.799, 0.602, -0.602, 0.799, 38.293, 0)"/><path class="c" d="M72.694,84.959c-.648-1.265-6.6-3.4-9.825-.008C59.376,88.627,75.815,89.22,72.694,84.959Z" transform="translate(-32.841 -13.494)"/><path class="e" d="M77.208,84.481c5.048,3.182-.348,8.786-3.656,10s-12.707,3.182-12.359-.909,7.485-9.09,7.485-9.09S72.16,81.3,77.208,84.481Z" transform="translate(-38.002 -12.008)"/></g><path class="e" d="M0,0H61.75l1.788,27.788H46.722L44.45,17.862H18.09l-1.666,9.925H0Z" transform="translate(36.856 139.165)"/><rect class="c" width="43.933" height="43.933" transform="translate(42.978 17.048)"/><g transform="translate(25.994 56.436)"><path class="f" d="M828.772,185.04h-74.08l11.059-66.657h55.666Z" transform="translate(-753.311 -103.082)"/><g transform="translate(19.375 49.212)"><path class="e" d="M797.714,157.8H761.2V132.484h36.514Z" transform="translate(-761.2 -132.484)"/></g><g transform="translate(3.941 31.928) rotate(7)"><path class="e" d="M6.814,32.11H.118L0,13.663S1.405,0,2.951,0H6.814Z" transform="translate(1.156 0.23)"/><path class="c" d="M7.945.231.981,15.13,0,0Z" transform="translate(0 0)"/></g><g transform="translate(66.005 34.798) rotate(-5)"><path class="e" d="M0,31H6.77l.119-17.807S5.468,0,3.906,0H0Z" transform="translate(0 0.222)"/><path class="c" d="M0,.223,7.041,14.6,8.033,0Z" transform="translate(0.024 0)"/></g><path class="d" d="M16.731,57.7V69.151h66.8l-1-11.356Z" transform="translate(-9.155 24.168)"/><path class="a" d="M0,0,19.5,1.667,31.646,0l11.52,1.667L62.112,0V19.694L43.166,17.119,31.444,19.694,19.5,17.119,0,19.694Z" transform="translate(6.38 0)"/><path class="c" d="M37.378,50.749l18.074-11.56H18.937Z" transform="translate(0.438 10.023)"/><path class="e" d="M25.978,8.689l.152,22.572h4.848V8.689Z" transform="translate(-3.388 -8.689)"/><path class="e" d="M25.978,8.689l.152,22.572h4.848V8.689Z" transform="translate(22.366 -8.689)"/></g><path class="e" d="M1153.363,1479.2v15.767l-1.72,3.052-3.152,1.275-35.543-.507-1.548-3.82v-11.734l2.752-4.033Z" transform="translate(-1068.573 -1449.427)"/><path class="d" d="M1135.8,1483.01l25-11.21h-15.6v2.424Z" transform="translate(-1058.281 -1448.996)"/><path class="a" d="M1112.9,1486.615l34.692.152,9.393-8.787v-8.332l-4.848-4.848H1118.2l-5.3,4.848Z" transform="translate(-1070.073 -1452.6)"/></g></g></svg>