<svg xmlns="http://www.w3.org/2000/svg" viewBox="0 0 297.04 300.12"><defs><style>.cls-1{fill:#bcbcbc;}.cls-2{fill:#fff;}.cls-3{fill:#2d2d2d;}.cls-4{fill:#10398c;}.cls-5{fill:none;stroke:#2e50a2;stroke-miterlimit:10;stroke-width:33px;}</style></defs><title>Asset 3</title><g id="Layer_2" data-name="Layer 2"><g id="Layer_1-2" data-name="Layer 1"><ellipse class="cls-1" cx="148.52" cy="150.06" rx="116.9" ry="118.27"/><path class="cls-2" d="M69.93,83.88c-37.26,37.26-32.47,105.65,4.5,142.38,53.3,53,114.3,15.3,114.3,15.3s-51.81,11.82-96.62-33C52.61,169.08,57.38,121.18,69.93,83.88Z"/><path class="cls-2" d="M247.93,156.36c16.66-16.66,3.56-58.2-24-85.66-39.75-39.59-70.51-26.25-70.51-26.25s29.16.71,62.61,34.16C245.51,108.09,249.83,136,247.93,156.36Z"/><polygon class="cls-3" points="129.03 31.79 147.3 49.48 164.19 32.12 129.03 31.79"/><polygon class="cls-3" points="164.19 269.36 145.92 251.67 129.03 269.03 164.19 269.36"/><polygon class="cls-4" points="151.52 135.37 55.01 105.48 138.11 163.34 238.21 193.28 151.52 135.37"/><polygon class="cls-3" points="31.61 166.96 49.3 148.69 31.95 131.8 31.61 166.96"/><polygon class="cls-3" points="266.58 131.8 248.9 150.07 266.25 166.96 266.58 131.8"/><ellipse class="cls-5" cx="148.52" cy="150.06" rx="132.02" ry="133.56"/></g></g></svg>