<?xml version="1.0" encoding="utf-8"?>
<!-- Generator: Adobe Illustrator 21.0.2, SVG Export Plug-In . SVG Version: 6.00 Build 0)  -->
<svg version="1.1" id="Layer_1" xmlns="http://www.w3.org/2000/svg" xmlns:xlink="http://www.w3.org/1999/xlink" x="0px" y="0px"
	 viewBox="0 0 431 116.7" style="enable-background:new 0 0 431 116.7;" xml:space="preserve">
<style type="text/css">
	.st0{fill:#2E50A2;}
	.st1{fill:#FFFFFF;}
</style>
<g transform="translate(-724.516 -932.258)">
	<g transform="translate(542.033 1238.403)">
		<polyline class="st0" points="558.4,-189.6 518.4,-229.7 558.4,-269.7 		"/>
	</g>
	<g transform="translate(491.024 1227.757)">
		
			<rect x="531.6" y="-255.8" transform="matrix(0.7071 -0.7071 0.7071 0.7071 323.3922 332.8313)" class="st0" width="63.8" height="63.8"/>
		
			<rect x="592.3" y="-282.5" transform="matrix(0.7071 -0.7071 0.7071 0.7071 344.61 349.685)" class="st1" width="4.2" height="82.7"/>
	</g>
	<g transform="translate(426.644 1227.776)">
		
			<rect x="531.6" y="-255.9" transform="matrix(0.7071 -0.7071 0.7071 0.7071 323.419 332.8202)" class="st0" width="63.8" height="63.8"/>
		
			<rect x="592.3" y="-282.5" transform="matrix(0.7071 -0.7071 0.7071 0.7071 344.61 349.685)" class="st1" width="4.2" height="82.7"/>
	</g>
	<g transform="translate(360.249 1204.126)">
		
			<rect x="534.8" y="-251.4" transform="matrix(0.7071 -0.7071 0.7071 0.7071 317.946 344.3423)" class="st0" width="79.6" height="79.6"/>
		
			<rect x="610.5" y="-285.2" transform="matrix(0.7071 -0.7071 0.7071 0.7071 344.4581 365.3373)" class="st1" width="5.4" height="104.2"/>
	</g>
	<g transform="translate(339.7 1223.71)">
		
			<rect x="532.1" y="-255.3" transform="matrix(0.7071 -0.7071 0.7071 0.7071 322.5801 334.7392)" class="st0" width="66.5" height="66.5"/>
		
			<rect x="595.7" y="-283" transform="matrix(0.7071 -0.7071 0.7071 0.7071 344.5856 352.5775)" class="st1" width="4.5" height="86.6"/>
	</g>
	<g transform="translate(319.028 1242.982)">
		
			<rect x="529.5" y="-258.9" transform="matrix(0.7071 -0.7071 0.7071 0.7071 327.0021 325.3995)" class="st0" width="53.7" height="53.7"/>
		
			<rect x="580.4" y="-281.6" transform="matrix(0.7071 -0.7071 0.7071 0.7071 344.8601 339.4654)" class="st1" width="3.6" height="70"/>
	</g>
	<g transform="translate(233.269 1207.257)">
		
			<rect x="534.4" y="-251.9" transform="matrix(0.7071 -0.7071 0.7071 0.7071 318.5572 342.8664)" class="st0" width="77.5" height="77.5"/>
		
			<rect x="608" y="-284.9" transform="matrix(0.7071 -0.7071 0.7071 0.7071 344.478 363.0681)" class="st1" width="5.1" height="101.2"/>
	</g>
	<g transform="translate(206.163 1223.591)">
		
			<rect x="532.1" y="-255" transform="matrix(0.7071 -0.7071 0.7071 0.7071 322.3984 334.8145)" class="st0" width="66.5" height="66.5"/>
		
			<rect x="595.4" y="-282.9" transform="matrix(0.7071 -0.7071 0.7071 0.7071 344.5856 352.3668)" class="st1" width="4.5" height="86.3"/>
	</g>
</g>
</svg>
