<svg xmlns="http://www.w3.org/2000/svg" width="1886.68" height="383" viewBox="0 0 1886.68 383">
	<title>
		WuzzalsLogo
	</title>
	<path d="M698.46,372.11v-59l133-156.57H713.72v-59h204.4v59l-133,156.57H928.48v59Z" transform="translate(-0.07 -5.93)" style="fill:#0083aa" />
	<path d="M960.1,372.11v-59l133-156.57H975.37v-59h204.39v59l-133,156.57h143.35v59Z" transform="translate(-0.07 -5.93)" style="fill:#0083aa" />
	<path d="M1457.76,372.11V336.43c-28.89,29.73-57.77,42.12-100.29,42.12-88.3,0-152.08-60-152.08-142.71,0-83.73,64.32-144.68,153.71-144.68,43.61,0,73.58,12.88,98.66,43.1V97.6h66.5V372.11Zm-91-220.5c-51.79,0-88.31,35.67-88.31,85.72,0,48.06,36.52,80.77,89.39,80.77,55.06,0,87.77-35.68,87.77-81.27C1455.59,186.8,1418.52,151.61,1366.74,151.61Z" transform="translate(-0.07 -5.93)" style="fill:#0083aa" />
	<path d="M1567.33,372.11v-320l72.5-46.22V372.11Z" transform="translate(-0.07 -5.93)" style="fill:#0083aa" />
	<path d="M1778.83,378.55c-60,0-103-29.73-110.65-93.65h73c7.08,23.29,19.07,33.2,40.33,33.2,18.53,0,32.7-11.4,32.7-26.76,0-15.85-2.72-20.32-51.23-35.17-60-18.34-84-41.13-84-81.27,0-47.07,44.16-83.74,100.29-83.74,51.25,0,96.49,30.72,99.21,82.25h-70.85c-3.28-14.37-13.09-21.8-28.36-21.8-15.8,0-27.79,9.91-27.79,23.29,0,14.37,1.63,15.36,51.24,29.72,63.23,17.85,83.94,39.65,83.94,80.28C1886.75,337.42,1839.33,378.55,1778.83,378.55Z" transform="translate(-0.07 -5.93)" style="fill:#0083aa" />
	<path d="M319.26,364.6q-34.93,3.33-69.88,4.76c-17.44-48.34-29.32-97.44-40.77-146.67q-1.92-7.87-6.49-32.61c-3.07-16.48-4.89-27.54-5.38-33.19-.72,6.92-2.51,18.06-5.28,33.39s-4.9,26.26-6.4,32.79c-11.4,49.11-23.23,98.08-40.6,146.29q-34.83-1.42-69.68-4.74C69.57,272.4,56.69,184.16.94,104.15q30.18-4.62,60.37-7.8c24.1,47.26,38.58,96.12,48.67,146a505.89,505.89,0,0,1,8.67,72.31c1.37-7.14,4-18.16,7.29-33.15s5.91-26.69,8.26-35c13.17-51.69,22.34-104.28,33.82-157q29-.66,58,0c11.46,52.71,20.62,105.3,33.79,157,1.74,6.94,4,17.52,7.12,31.72s6,26.31,8.26,36.44c.34-9.86,1.29-22.16,3.08-36.83s3.8-26.48,5.75-35.48c10-49.88,24.46-98.74,48.5-146q30.18,3.18,60.37,7.8C337.22,184.17,324.37,272.4,319.26,364.6Z" transform="translate(-0.07 -5.93)" style="fill:#0083aa;stroke:#0083aa;stroke-miterlimit:10" />
	<path d="M587,193.11l75-30.45C718.66,264,631.37,415.29,505.27,384.3s-126.19-148.4-108.18-198,53.85-75.49,53.85-75.49l51.73,61.57c-30.18,23.44-30,62.05-30,62.05s-.54,48.51,50.63,61.73S616.82,242.46,587,193.11Z" transform="translate(-0.07 -5.93)" style="fill:#f7be00;stroke:#0083aa;stroke-miterlimit:10;stroke-width:1.0263600000000002px" />
	<path d="M480.67,80.5a39.32,39.32,0,1,0,44.66-33.16A39.3,39.3,0,0,0,480.67,80.5Z" transform="translate(-0.07 -5.93)" style="fill:#f7be00;stroke:#0083aa;stroke-miterlimit:10;stroke-width:1.0263600000000002px" />
	<path d="M580.08,106.74a39.33,39.33,0,1,0,44.69-33.13A39.34,39.34,0,0,0,580.08,106.74Z" transform="translate(-0.07 -5.93)" style="fill:#f7be00;stroke:#0083aa;stroke-miterlimit:10;stroke-width:1.0263600000000002px" />
</svg>
